<mxfile host="app.diagrams.net" modified="2024-02-24T07:42:16.585Z" agent="Mozilla/5.0 (Macintosh; Intel Mac OS X 10_15_7) AppleWebKit/537.36 (KHTML, like Gecko) Chrome/120.0.0.0 Whale/3.24.223.18 Safari/537.36" etag="LUC5W5Ei-6uUikyhXi3Y" version="23.1.5" type="github">
  <diagram name="페이지-1" id="1ok1ERqfsCvi9OOJUiFP">
    <mxGraphModel dx="524" dy="997" grid="1" gridSize="10" guides="1" tooltips="1" connect="1" arrows="1" fold="1" page="1" pageScale="1" pageWidth="1169" pageHeight="827" math="0" shadow="0">
      <root>
        <mxCell id="0" />
        <mxCell id="1" parent="0" />
        <mxCell id="Q9t8G7Dckzx33C8LAsi0-1" value="&lt;font style=&quot;font-size: 15px;&quot;&gt;Kafka Producer&lt;/font&gt;" style="rounded=0;whiteSpace=wrap;html=1;fillColor=#fff2cc;strokeColor=#d6b656;" vertex="1" parent="1">
          <mxGeometry x="601" y="195" width="100" height="50" as="geometry" />
        </mxCell>
        <mxCell id="Q9t8G7Dckzx33C8LAsi0-6" value="" style="rounded=0;whiteSpace=wrap;html=1;" vertex="1" parent="1">
          <mxGeometry x="230" y="100" width="290" height="580" as="geometry" />
        </mxCell>
        <mxCell id="Q9t8G7Dckzx33C8LAsi0-8" value="" style="rounded=1;whiteSpace=wrap;html=1;fillColor=#dae8fc;strokeColor=#6c8ebf;" vertex="1" parent="1">
          <mxGeometry x="255" y="320" width="220" height="160" as="geometry" />
        </mxCell>
        <mxCell id="Q9t8G7Dckzx33C8LAsi0-9" value="Kafka Broker 2" style="text;html=1;align=center;verticalAlign=middle;whiteSpace=wrap;rounded=0;" vertex="1" parent="1">
          <mxGeometry x="320" y="330" width="90" height="30" as="geometry" />
        </mxCell>
        <mxCell id="Q9t8G7Dckzx33C8LAsi0-10" value="" style="rounded=0;whiteSpace=wrap;html=1;fillColor=#e1d5e7;strokeColor=#9673a6;" vertex="1" parent="1">
          <mxGeometry x="265" y="360" width="200" height="100" as="geometry" />
        </mxCell>
        <mxCell id="Q9t8G7Dckzx33C8LAsi0-11" value="Topic T1 (Partition Replica Follower)" style="text;html=1;align=center;verticalAlign=middle;whiteSpace=wrap;rounded=0;" vertex="1" parent="1">
          <mxGeometry x="265" y="360" width="200" height="30" as="geometry" />
        </mxCell>
        <mxCell id="Q9t8G7Dckzx33C8LAsi0-16" value="" style="group" vertex="1" connectable="0" parent="1">
          <mxGeometry x="275" y="390" width="60" height="60" as="geometry" />
        </mxCell>
        <mxCell id="Q9t8G7Dckzx33C8LAsi0-13" value="M1" style="rounded=0;whiteSpace=wrap;html=1;" vertex="1" parent="Q9t8G7Dckzx33C8LAsi0-16">
          <mxGeometry width="60" height="60" as="geometry" />
        </mxCell>
        <mxCell id="Q9t8G7Dckzx33C8LAsi0-14" value="1" style="ellipse;whiteSpace=wrap;html=1;aspect=fixed;fillColor=#f5f5f5;fontColor=#333333;strokeColor=#666666;" vertex="1" parent="Q9t8G7Dckzx33C8LAsi0-16">
          <mxGeometry x="40" width="20" height="20" as="geometry" />
        </mxCell>
        <mxCell id="Q9t8G7Dckzx33C8LAsi0-17" value="" style="group" vertex="1" connectable="0" parent="1">
          <mxGeometry x="335" y="390" width="60" height="60" as="geometry" />
        </mxCell>
        <mxCell id="Q9t8G7Dckzx33C8LAsi0-18" value="M2" style="rounded=0;whiteSpace=wrap;html=1;" vertex="1" parent="Q9t8G7Dckzx33C8LAsi0-17">
          <mxGeometry width="60" height="60" as="geometry" />
        </mxCell>
        <mxCell id="Q9t8G7Dckzx33C8LAsi0-19" value="2" style="ellipse;whiteSpace=wrap;html=1;aspect=fixed;fillColor=#f5f5f5;fontColor=#333333;strokeColor=#666666;" vertex="1" parent="Q9t8G7Dckzx33C8LAsi0-17">
          <mxGeometry x="40" width="20" height="20" as="geometry" />
        </mxCell>
        <mxCell id="Q9t8G7Dckzx33C8LAsi0-21" value="" style="group;fillColor=#f5f5f5;fontColor=#333333;strokeColor=#666666;" vertex="1" connectable="0" parent="1">
          <mxGeometry x="395" y="390" width="60" height="60" as="geometry" />
        </mxCell>
        <mxCell id="Q9t8G7Dckzx33C8LAsi0-22" value="M3" style="rounded=0;whiteSpace=wrap;html=1;" vertex="1" parent="Q9t8G7Dckzx33C8LAsi0-21">
          <mxGeometry width="60" height="60" as="geometry" />
        </mxCell>
        <mxCell id="Q9t8G7Dckzx33C8LAsi0-23" value="3" style="ellipse;whiteSpace=wrap;html=1;aspect=fixed;fillColor=#f5f5f5;fontColor=#333333;strokeColor=#666666;" vertex="1" parent="Q9t8G7Dckzx33C8LAsi0-21">
          <mxGeometry x="40" width="20" height="20" as="geometry" />
        </mxCell>
        <mxCell id="Q9t8G7Dckzx33C8LAsi0-37" value="" style="rounded=1;whiteSpace=wrap;html=1;fillColor=#dae8fc;strokeColor=#6c8ebf;" vertex="1" parent="1">
          <mxGeometry x="255" y="140" width="220" height="160" as="geometry" />
        </mxCell>
        <mxCell id="Q9t8G7Dckzx33C8LAsi0-38" value="Kafka Broker 1" style="text;html=1;align=center;verticalAlign=middle;whiteSpace=wrap;rounded=0;" vertex="1" parent="1">
          <mxGeometry x="320" y="150" width="90" height="30" as="geometry" />
        </mxCell>
        <mxCell id="Q9t8G7Dckzx33C8LAsi0-39" value="" style="rounded=0;whiteSpace=wrap;html=1;fillColor=#e1d5e7;strokeColor=#9673a6;" vertex="1" parent="1">
          <mxGeometry x="265" y="180" width="200" height="100" as="geometry" />
        </mxCell>
        <mxCell id="Q9t8G7Dckzx33C8LAsi0-40" value="Topic T1 (Partition Replica Leader)" style="text;html=1;align=center;verticalAlign=middle;whiteSpace=wrap;rounded=0;" vertex="1" parent="1">
          <mxGeometry x="265" y="180" width="200" height="30" as="geometry" />
        </mxCell>
        <mxCell id="Q9t8G7Dckzx33C8LAsi0-41" value="" style="group" vertex="1" connectable="0" parent="1">
          <mxGeometry x="275" y="210" width="60" height="60" as="geometry" />
        </mxCell>
        <mxCell id="Q9t8G7Dckzx33C8LAsi0-42" value="M1" style="rounded=0;whiteSpace=wrap;html=1;" vertex="1" parent="Q9t8G7Dckzx33C8LAsi0-41">
          <mxGeometry width="60" height="60" as="geometry" />
        </mxCell>
        <mxCell id="Q9t8G7Dckzx33C8LAsi0-43" value="1" style="ellipse;whiteSpace=wrap;html=1;aspect=fixed;fillColor=#f5f5f5;fontColor=#333333;strokeColor=#666666;" vertex="1" parent="Q9t8G7Dckzx33C8LAsi0-41">
          <mxGeometry x="40" width="20" height="20" as="geometry" />
        </mxCell>
        <mxCell id="Q9t8G7Dckzx33C8LAsi0-44" value="" style="group;fillColor=#f5f5f5;fontColor=#333333;strokeColor=#666666;" vertex="1" connectable="0" parent="1">
          <mxGeometry x="335" y="210" width="60" height="60" as="geometry" />
        </mxCell>
        <mxCell id="Q9t8G7Dckzx33C8LAsi0-45" value="M2" style="rounded=0;whiteSpace=wrap;html=1;" vertex="1" parent="Q9t8G7Dckzx33C8LAsi0-44">
          <mxGeometry width="60" height="60" as="geometry" />
        </mxCell>
        <mxCell id="Q9t8G7Dckzx33C8LAsi0-46" value="2" style="ellipse;whiteSpace=wrap;html=1;aspect=fixed;fillColor=#f5f5f5;fontColor=#333333;strokeColor=#666666;" vertex="1" parent="Q9t8G7Dckzx33C8LAsi0-44">
          <mxGeometry x="40" width="20" height="20" as="geometry" />
        </mxCell>
        <mxCell id="Q9t8G7Dckzx33C8LAsi0-47" value="" style="group" vertex="1" connectable="0" parent="1">
          <mxGeometry x="395" y="210" width="60" height="60" as="geometry" />
        </mxCell>
        <mxCell id="Q9t8G7Dckzx33C8LAsi0-48" value="M3" style="rounded=0;whiteSpace=wrap;html=1;" vertex="1" parent="Q9t8G7Dckzx33C8LAsi0-47">
          <mxGeometry width="60" height="60" as="geometry" />
        </mxCell>
        <mxCell id="Q9t8G7Dckzx33C8LAsi0-49" value="3" style="ellipse;whiteSpace=wrap;html=1;aspect=fixed;fillColor=#f5f5f5;fontColor=#333333;strokeColor=#666666;" vertex="1" parent="Q9t8G7Dckzx33C8LAsi0-47">
          <mxGeometry x="40" width="20" height="20" as="geometry" />
        </mxCell>
        <mxCell id="Q9t8G7Dckzx33C8LAsi0-50" value="Kafka Cluster" style="text;html=1;align=center;verticalAlign=middle;whiteSpace=wrap;rounded=0;" vertex="1" parent="1">
          <mxGeometry x="330" y="100" width="90" height="30" as="geometry" />
        </mxCell>
        <mxCell id="Q9t8G7Dckzx33C8LAsi0-52" value="" style="rounded=1;whiteSpace=wrap;html=1;fillColor=#dae8fc;strokeColor=#6c8ebf;" vertex="1" parent="1">
          <mxGeometry x="255" y="500" width="220" height="160" as="geometry" />
        </mxCell>
        <mxCell id="Q9t8G7Dckzx33C8LAsi0-53" value="Kafka Broker 3" style="text;html=1;align=center;verticalAlign=middle;whiteSpace=wrap;rounded=0;" vertex="1" parent="1">
          <mxGeometry x="320" y="510" width="90" height="30" as="geometry" />
        </mxCell>
        <mxCell id="Q9t8G7Dckzx33C8LAsi0-54" value="" style="rounded=0;whiteSpace=wrap;html=1;fillColor=#e1d5e7;strokeColor=#9673a6;" vertex="1" parent="1">
          <mxGeometry x="265" y="540" width="200" height="100" as="geometry" />
        </mxCell>
        <mxCell id="Q9t8G7Dckzx33C8LAsi0-55" value="Topic T1 (Partition Replica Follower)" style="text;html=1;align=center;verticalAlign=middle;whiteSpace=wrap;rounded=0;" vertex="1" parent="1">
          <mxGeometry x="265" y="540" width="200" height="30" as="geometry" />
        </mxCell>
        <mxCell id="Q9t8G7Dckzx33C8LAsi0-56" value="" style="group" vertex="1" connectable="0" parent="1">
          <mxGeometry x="275" y="570" width="60" height="60" as="geometry" />
        </mxCell>
        <mxCell id="Q9t8G7Dckzx33C8LAsi0-57" value="M1" style="rounded=0;whiteSpace=wrap;html=1;" vertex="1" parent="Q9t8G7Dckzx33C8LAsi0-56">
          <mxGeometry width="60" height="60" as="geometry" />
        </mxCell>
        <mxCell id="Q9t8G7Dckzx33C8LAsi0-58" value="1" style="ellipse;whiteSpace=wrap;html=1;aspect=fixed;fillColor=#f5f5f5;fontColor=#333333;strokeColor=#666666;" vertex="1" parent="Q9t8G7Dckzx33C8LAsi0-56">
          <mxGeometry x="40" width="20" height="20" as="geometry" />
        </mxCell>
        <mxCell id="Q9t8G7Dckzx33C8LAsi0-59" value="" style="group" vertex="1" connectable="0" parent="1">
          <mxGeometry x="335" y="570" width="60" height="60" as="geometry" />
        </mxCell>
        <mxCell id="Q9t8G7Dckzx33C8LAsi0-60" value="M2" style="rounded=0;whiteSpace=wrap;html=1;" vertex="1" parent="Q9t8G7Dckzx33C8LAsi0-59">
          <mxGeometry width="60" height="60" as="geometry" />
        </mxCell>
        <mxCell id="Q9t8G7Dckzx33C8LAsi0-61" value="2" style="ellipse;whiteSpace=wrap;html=1;aspect=fixed;fillColor=#f5f5f5;fontColor=#333333;strokeColor=#666666;" vertex="1" parent="Q9t8G7Dckzx33C8LAsi0-59">
          <mxGeometry x="40" width="20" height="20" as="geometry" />
        </mxCell>
        <mxCell id="Q9t8G7Dckzx33C8LAsi0-62" value="" style="group" vertex="1" connectable="0" parent="1">
          <mxGeometry x="395" y="570" width="60" height="60" as="geometry" />
        </mxCell>
        <mxCell id="Q9t8G7Dckzx33C8LAsi0-63" value="" style="rounded=0;whiteSpace=wrap;html=1;" vertex="1" parent="Q9t8G7Dckzx33C8LAsi0-62">
          <mxGeometry width="60" height="60" as="geometry" />
        </mxCell>
        <mxCell id="Q9t8G7Dckzx33C8LAsi0-65" style="edgeStyle=orthogonalEdgeStyle;rounded=0;orthogonalLoop=1;jettySize=auto;html=1;entryX=1;entryY=0.5;entryDx=0;entryDy=0;" edge="1" parent="1" source="Q9t8G7Dckzx33C8LAsi0-1" target="Q9t8G7Dckzx33C8LAsi0-49">
          <mxGeometry relative="1" as="geometry" />
        </mxCell>
        <mxCell id="Q9t8G7Dckzx33C8LAsi0-66" style="edgeStyle=orthogonalEdgeStyle;rounded=0;orthogonalLoop=1;jettySize=auto;html=1;entryX=1;entryY=0.5;entryDx=0;entryDy=0;" edge="1" parent="1" source="Q9t8G7Dckzx33C8LAsi0-48" target="Q9t8G7Dckzx33C8LAsi0-10">
          <mxGeometry relative="1" as="geometry">
            <Array as="points">
              <mxPoint x="500" y="240" />
              <mxPoint x="500" y="410" />
            </Array>
          </mxGeometry>
        </mxCell>
        <mxCell id="Q9t8G7Dckzx33C8LAsi0-67" style="edgeStyle=orthogonalEdgeStyle;rounded=0;orthogonalLoop=1;jettySize=auto;html=1;entryX=1.017;entryY=0.367;entryDx=0;entryDy=0;entryPerimeter=0;" edge="1" parent="1" source="Q9t8G7Dckzx33C8LAsi0-48" target="Q9t8G7Dckzx33C8LAsi0-63">
          <mxGeometry relative="1" as="geometry">
            <Array as="points">
              <mxPoint x="500" y="240" />
              <mxPoint x="500" y="592" />
            </Array>
          </mxGeometry>
        </mxCell>
      </root>
    </mxGraphModel>
  </diagram>
</mxfile>
